<?xml version="1.0" encoding="UTF-8" standalone="no"?>
<!-- Created with Inkscape (http://www.inkscape.org/) -->

<svg
   width="182.39999"
   height="182.40001"
   viewBox="0 0 182.39999 182.40001"
   version="1.1"
   id="svg1"
   xmlns="http://www.w3.org/2000/svg"
   xmlns:svg="http://www.w3.org/2000/svg">
  <defs
     id="defs1" />
  <path
     d="m 81.600169,181.82401 q -1.92,0.384 -4.608,0.384 -2.688,0.192 -5.376,0.192 -13.824,0 -22.272,-7.296 -8.448,-7.296 -8.448,-18.432 0,-5.952 2.88,-11.328 3.072,-5.568 6.912,-10.752 3.84,-5.184 6.72,-10.176 3.072,-4.992 3.072,-10.176 0,-4.224 -3.072,-7.872 -2.88,-3.84 -8.832,-6.336 l -7.296,-3.072003 v -11.52 l 7.296,-3.072 q 5.952,-2.496 8.832,-6.144 3.072,-3.84 3.072,-8.064 0,-5.184 -3.072,-10.176 -2.88,-4.992 -6.72,-10.176 -3.84,-5.184 -6.912,-10.56 -2.88,-5.568 -2.88,-11.52 0,-11.328 8.448,-18.4319998 8.448,-7.2960000061179 22.272,-7.2960000061179 2.688,0 5.376,0.1919999961179 2.688,0 4.608,0.384 V 16.704007 h -7.872 q -5.376,0 -9.6,2.688 -4.224,2.496 -4.224,9.024 0,4.8 2.88,9.792 2.88,4.8 6.72,9.984 3.84,5.184 6.72,10.752 2.88,5.376 2.88,10.944 0,6.72 -4.032,12.48 -4.032,5.568 -9.984,8.832 5.952,3.264 9.984,9.024003 4.032,5.568 4.032,12.288 0,5.568 -2.88,10.944 -2.88,5.376 -6.72,10.56 -3.84,5.184 -6.72,10.176 -2.88,4.992 -2.88,9.792 0,6.528 4.224,9.024 4.224,2.688 9.6,2.688 h 7.872 z m 59.904051,-25.152 q 0,11.136 -8.448,18.432 -8.448,7.296 -22.272,7.296 -2.688,0 -5.376,-0.192 -2.688,0 -4.608,-0.384 v -16.128 h 7.872 q 5.568,0 9.6,-2.688 4.224,-2.496 4.224,-9.024 0,-4.8 -2.88,-9.792 -2.88,-4.992 -6.72,-10.176 -3.84,-5.184 -6.72,-10.56 -2.88,-5.376 -2.88,-10.944 0,-6.72 4.032,-12.288 4.032,-5.760003 9.984,-9.024003 -5.952,-3.264 -9.984,-8.832 -4.032,-5.76 -4.032,-12.48 0,-5.568 2.88,-10.944 2.88,-5.568 6.72,-10.752 3.84,-5.184 6.72,-9.984 2.88,-4.992 2.88,-9.792 0,-6.528 -4.224,-9.024 -4.032,-2.688 -9.6,-2.688 h -7.872 V 0.57600719 q 1.92,-0.384 4.608,-0.384 2.688,-0.1919999961179 5.376,-0.1919999961179 13.824,0 22.272,7.2960000061179 8.448,7.1039998 8.448,18.4319998 0,5.952 -3.072,11.52 -2.88,5.376 -6.72,10.56 -3.84,5.184 -6.912,10.176 -2.88,4.992 -2.88,10.176 0,4.224 2.88,8.064 3.072,3.648 9.024,6.144 l 7.296,3.072 v 11.52 l -7.296,3.072003 q -5.952,2.496 -9.024,6.336 -2.88,3.648 -2.88,7.872 0,5.184 2.88,10.176 3.072,4.992 6.912,10.176 3.84,5.184 6.72,10.752 3.072,5.376 3.072,11.328 z"
     id="text1"
     style="font-size:192px;line-height:0;font-family:Gabarito;-inkscape-font-specification:'Gabarito, Normal';letter-spacing:0px;word-spacing:0px;stroke-width:1.13386"
     aria-label="{}" />
  <path
     d="m 25.727999,81.600097 q -11.136,0 -18.4319998,-8.448 -7.29599999589778,-8.448 -7.29599999589778,-22.272 0,-2.688 0.19199999589778,-5.376 0,-2.688 0.384,-4.608 H 16.703999 v 7.872 q 0,5.568 2.688,9.6 2.496,4.224 9.024,4.224 4.8,0 9.792,-2.88 4.992,-2.88 10.176,-6.72 5.184,-3.84 10.56,-6.72 5.376,-2.88 10.944,-2.88 6.72,0 12.288,4.032 5.76,4.032 9.024,9.984 3.264,-5.952 8.832001,-9.984 5.76,-4.032 12.48,-4.032 5.568,0 10.944,2.88 5.568,2.88 10.752,6.72 5.184,3.84 9.984,6.72 4.992,2.88 9.792,2.88 6.528,0 9.024,-4.224 2.688,-4.032 2.688,-9.6 v -7.872 h 16.128 q 0.384,1.92 0.384,4.608 0.192,2.688 0.192,5.376 0,13.824 -7.296,22.272 -7.104,8.448 -18.432,8.448 -5.952,0 -11.52,-3.072 -5.376,-2.88 -10.56,-6.72 -5.184,-3.84 -10.176,-6.912 -4.992,-2.88 -10.176,-2.88 -4.224,0 -8.064,2.88 -3.648,3.072 -6.144,9.024 l -3.072001,7.296 h -11.52 l -3.072,-7.296 q -2.496,-5.952 -6.336,-9.024 -3.648,-2.88 -7.872,-2.88 -5.184,0 -10.176,2.88 -4.992,3.072 -10.176,6.912 -5.184,3.84 -10.752,6.72 -5.376,3.072 -11.328,3.072 z M 0.5759992,141.50415 q -0.384,-1.92 -0.384,-4.608 -0.19199999589778,-2.688 -0.19199999589778,-5.376 0,-13.824 7.29599999589778,-22.272 7.2959998,-8.448 18.4319998,-8.448 5.952,0 11.328,2.88 5.568,3.072 10.752,6.912 5.184,3.84 10.176,6.72 4.992,3.072 10.176,3.072 4.224,0 7.872,-3.072 3.84,-2.88 6.336,-8.832 l 3.072,-7.296 h 11.52 l 3.072001,7.296 q 2.496,5.952 6.144,8.832 3.84,3.072 8.064,3.072 5.184,0 10.176,-3.072 4.992,-2.88 10.176,-6.72 5.184,-3.84 10.56,-6.912 5.568,-2.88 11.52,-2.88 11.328,0 18.432,8.448 7.296,8.448 7.296,22.272 0,2.688 -0.192,5.376 0,2.688 -0.384,4.608 h -16.128 v -7.872 q 0,-5.376 -2.688,-9.6 -2.496,-4.224 -9.024,-4.224 -4.8,0 -9.792,2.88 -4.8,2.88 -9.984,6.72 -5.184,3.84 -10.752,6.72 -5.376,2.88 -10.944,2.88 -6.72,0 -12.48,-4.032 -5.568001,-4.032 -8.832001,-9.984 -3.264,5.952 -9.024,9.984 -5.568,4.032 -12.288,4.032 -5.568,0 -10.944,-2.88 -5.376,-2.88 -10.56,-6.72 -5.184,-3.84 -10.176,-6.72 -4.992,-2.88 -9.792,-2.88 -6.528,0 -9.024,4.224 -2.688,4.224 -2.688,9.6 v 7.872 z"
     id="text2"
     style="font-size:192px;line-height:0;font-family:Gabarito;-inkscape-font-specification:'Gabarito, Normal';letter-spacing:0px;word-spacing:0px;fill:#ff6600;stroke-width:1.13386"
     aria-label="}{" />
</svg>
